<svg version="1.1" viewBox="0 0 3104 3104" xmlns="http://www.w3.org/2000/svg">
<line x1="960.7933243498231" y1="528" x2="2143.2066756501767" y2="2576" stroke-width="8" stroke="black" shape-rendering="crispEdges"/>
<line x1="960.7933243498231" y1="2576" x2="2143.2066756501767" y2="528" stroke-width="8" stroke="black" shape-rendering="crispEdges"/>
<line x1="1256.3966621749116" y1="1040" x2="1847.6033378250884" y2="1040" stroke-width="8" stroke="black" shape-rendering="crispEdges"/>
<line x1="1256.3966621749116" y1="2064" x2="1847.6033378250884" y2="2064" stroke-width="8" stroke="black" shape-rendering="crispEdges"/>
<line x1="1404.1983310874557" y1="272" x2="1404.1983310874557" y2="1040" stroke-width="8" stroke="black" shape-rendering="crispEdges"/>
<line x1="1552.0" y1="16" x2="1552.0" y2="1040" stroke-width="8" stroke="black" shape-rendering="crispEdges"/>
<line x1="1699.8016689125443" y1="272" x2="1699.8016689125443" y2="1040" stroke-width="8" stroke="black" shape-rendering="crispEdges"/>
<line x1="1404.1983310874557" y1="2832" x2="1404.1983310874557" y2="2064" stroke-width="8" stroke="black" shape-rendering="crispEdges"/>
<line x1="1552.0" y1="3088" x2="1552.0" y2="2064" stroke-width="8" stroke="black" shape-rendering="crispEdges"/>
<line x1="1699.8016689125443" y1="2832" x2="1699.8016689125443" y2="2064" stroke-width="8" stroke="black" shape-rendering="crispEdges"/>
<line x1="1404.1983310874557" y1="1296" x2="1552.0" y2="1210.6666666666667" stroke-width="8" stroke="black" shape-rendering="crispEdges"/>
<line x1="1699.8016689125443" y1="1296" x2="1552.0" y2="1210.6666666666667" stroke-width="8" stroke="black" shape-rendering="crispEdges"/>
<line x1="1404.1983310874557" y1="1296" x2="1552.0" y2="1381.3333333333333" stroke-width="8" stroke="black" shape-rendering="crispEdges"/>
<line x1="1699.8016689125443" y1="1296" x2="1552.0" y2="1381.3333333333333" stroke-width="8" stroke="black" shape-rendering="crispEdges"/>
<line x1="1404.1983310874557" y1="1296" x2="1699.8016689125443" y2="1296" stroke-width="8" stroke="black" shape-rendering="crispEdges"/>
<line x1="1404.1983310874557" y1="1808" x2="1552.0" y2="1722.6666666666667" stroke-width="8" stroke="black" shape-rendering="crispEdges"/>
<line x1="1699.8016689125443" y1="1808" x2="1552.0" y2="1722.6666666666667" stroke-width="8" stroke="black" shape-rendering="crispEdges"/>
<line x1="1404.1983310874557" y1="1808" x2="1552.0" y2="1893.3333333333333" stroke-width="8" stroke="black" shape-rendering="crispEdges"/>
<line x1="1699.8016689125443" y1="1808" x2="1552.0" y2="1893.3333333333333" stroke-width="8" stroke="black" shape-rendering="crispEdges"/>
<path d="M 1478.0991655437278 1765.3333333333333 L 1478.0991655437278 1850.6666666666667 L 1552.0 1893.3333333333333 L 1625.9008344562722 1850.6666666666667 L 1625.9008344562722 1765.3333333333333 L 1552.0 1722.6666666666667 Z" stroke-width="8" fill="black" shape-rendering="crispEdges"/>
</svg>
